<?xml version="1.0" encoding="UTF-8"?>
<svg width="144px" height="144px" viewBox="0 0 144 144" version="1.1" xmlns="http://www.w3.org/2000/svg" xmlns:xlink="http://www.w3.org/1999/xlink">
    <title>022-machine-learning-1</title>
    <g id="Page-1" stroke="none" stroke-width="1" fill="none" fill-rule="evenodd">
        <g id="Artboard" transform="translate(-3.000000, -3.000000)" fill-rule="nonzero">
            <g id="022-machine-learning-1" transform="translate(3.000000, 3.000000)">
                <g id="Group" transform="translate(15.428571, 64.000000)" fill="#ABBBCC">
                    <path d="M12.4099379,80 L2.48198758,80 C1.11122369,80 0,78.8807119 0,77.5 L0,75 C0,68.0964406 5.55611845,62.5 12.4099379,62.5 L14.3210683,62.5 L12.4099379,80 Z" id="Path"></path>
                    <path d="M99.8503602,62.5 L101.761491,62.5 C108.61531,62.5 114.171429,68.0964406 114.171429,75 L114.171429,77.5 C114.171429,78.8807119 113.060205,80 111.689441,80 L101.761491,80 L99.8503602,62.5 Z" id="Path"></path>
                    <path d="M12.4099379,0 L12.4099379,27.5 L9.92795031,27.5 C4.44489476,27.5 0,23.0228475 0,17.5 L0,10 C0,4.4771525 4.44489476,0 9.92795031,0 L12.4099379,0 Z" id="Path"></path>
                    <path d="M101.761491,0 L101.761491,27.5 L104.243478,27.5 C109.726534,27.5 114.171429,23.0228475 114.171429,17.5 L114.171429,10 C114.171429,4.4771525 109.726534,0 104.243478,0 L101.761491,0 Z" id="Path"></path>
                    <polygon id="Path" points="44.6757764 47.5 69.4956522 47.5 69.4956522 62.5 44.6757764 62.5"></polygon>
                </g>
                <path d="M113.378046,48 C117.182237,51.7097131 119.324103,56.8075603 119.314286,62.1287425 L119.314286,94.239521 C119.314286,105.152932 110.491911,114 99.609003,114 L45.4195685,114 C34.53666,114 25.7142857,105.152932 25.7142857,94.239521 L25.7142857,62.1287425 C25.7044689,56.8075603 27.8463348,51.7097131 31.6505258,48 L113.378046,48 Z" id="Path" fill="#E1EAF4"></path>
                <path d="M99.7467429,53 C105.205048,54.4123836 109.024289,59.3816754 109.028571,65.0767754 L109.028571,92.5239923 C109.028571,99.4143011 103.502486,105 96.6857143,105 L47.3142857,105 C40.4975139,105 34.9714286,99.4143011 34.9714286,92.5239923 L34.9714286,65.0767754 C34.9757113,59.3816754 38.7949522,54.4123836 44.2532571,53 L99.7467429,53 Z" id="Path" fill="#347F91"></path>
                <ellipse id="Oval" fill="#82ECFF" cx="52.9714286" cy="71.5" rx="8.74285714" ry="8.5"></ellipse>
                <ellipse id="Oval" fill="#82ECFF" cx="91.0285714" cy="71.5" rx="8.74285714" ry="8.5"></ellipse>
                <path d="M80.6248911,84.0004369 C81.1063709,83.989153 81.5679042,84.1969044 81.8847767,84.5675531 C82.2016491,84.9382017 82.3411543,85.4334905 82.2655954,85.9195838 C81.2920666,90.6296446 77.2247788,94 72.5142857,94 C67.8037927,94 63.7365048,90.6296446 62.7629761,85.9195838 C62.6874172,85.4334905 62.8269223,84.9382017 63.1437948,84.5675531 C63.4606673,84.1969044 63.9222006,83.989153 64.4036804,84.0004369 L80.6248911,84.0004369 Z" id="Path" fill="#82ECFF"></path>
                <path d="M35.1428571,124 L108.857143,124 C112.92827,124 116.228571,127.357864 116.228571,131.5 L116.228571,144 L27.7714286,144 L27.7714286,131.5 C27.7714286,127.357864 31.0717296,124 35.1428571,124 Z" id="Path" fill="#E1EAF4"></path>
                <path d="M106.971429,144 L106.971429,136.5 C106.971429,135.119288 105.853054,134 104.473469,134 L39.5265306,134 C38.1469458,134 37.0285714,135.119288 37.0285714,136.5 L37.0285714,144 L106.971429,144 Z" id="Path" fill="#347F91"></path>
                <polygon id="Path" fill="#E5BB33" points="131.657143 15 136.8 15 136.8 44 131.657143 44"></polygon>
                <path d="M27.7714286,24 L27.7714286,40.7887917 C27.7680882,44.6681908 30.0340311,48.1887952 33.5604604,49.7832273 C39.2069742,52.3386328 50.296059,55 72,55 C93.703941,55 104.793026,52.3386328 110.43954,49.7832273 C113.965969,48.1887952 116.231912,44.6681908 116.228571,40.7887917 L116.228571,24 L27.7714286,24 Z" id="Path" fill="#114559"></path>
                <ellipse id="Oval" fill="#C49027" cx="134.228571" cy="47.5" rx="7.71428571" ry="7.5"></ellipse>
                <path d="M142.599739,16.777542 L73.8648556,34.7618995 C72.6487226,35.0793668 71.3722987,35.0793668 70.1561657,34.7618995 L1.42128191,16.777542 C0.560431298,16.5475362 -0.0285992445,15.7492728 0,14.8528512 C0.0307433416,13.9564296 0.671252306,13.1994401 1.54540139,13.0276759 L70.6675379,0.125636777 C71.5551269,-0.0418789257 72.4658944,-0.0418789257 73.3534834,0.125636777 L142.47562,13.0376755 C143.339892,13.2176567 143.969442,13.9701349 144,14.8584257 C144.028403,15.7467165 143.45015,16.5398473 142.599739,16.777542 L142.599739,16.777542 Z" id="Path" fill="#205B75"></path>
            </g>
        </g>
    </g>
</svg>