<?xml version="1.0" encoding="UTF-8"?>
<svg width="482px" height="145px" viewBox="0 0 482 145" version="1.1" xmlns="http://www.w3.org/2000/svg" xmlns:xlink="http://www.w3.org/1999/xlink">
    <title>Untitled</title>
    <g id="KnowBot-Logo" stroke="none" stroke-width="1" fill="none" fill-rule="evenodd">
        <g id="KnowBotMarkSVG" fill-rule="nonzero">
            <g id="Group" transform="translate(15.429569, 64.000000)" fill="#ABBBCC">
                <path d="M12.4099379,80 L2.48198758,80 C1.11122369,80 0,78.8807119 0,77.5 L0,75 C0,68.0964406 5.55611845,62.5 12.4099379,62.5 L14.3210683,62.5 L12.4099379,80 Z" id="Path"></path>
                <path d="M99.8503602,62.5 L101.761491,62.5 C108.61531,62.5 114.171429,68.0964406 114.171429,75 L114.171429,77.5 C114.171429,78.8807119 113.060205,80 111.689441,80 L101.761491,80 L99.8503602,62.5 Z" id="Path"></path>
                <path d="M12.4099379,0 L12.4099379,27.5 L9.92795031,27.5 C4.44489476,27.5 0,23.0228475 0,17.5 L0,10 C0,4.4771525 4.44489476,0 9.92795031,0 L12.4099379,0 Z" id="Path"></path>
                <path d="M101.761491,0 L101.761491,27.5 L104.243478,27.5 C109.726534,27.5 114.171429,23.0228475 114.171429,17.5 L114.171429,10 C114.171429,4.4771525 109.726534,0 104.243478,0 L101.761491,0 Z" id="Path"></path>
                <polygon id="Path" points="44.6757764 47.5 69.4956522 47.5 69.4956522 62.5 44.6757764 62.5"></polygon>
            </g>
            <path d="M113.379044,48 C117.183235,51.7097131 119.325101,56.8075603 119.315317,62.1287425 L119.315317,94.239521 C119.315317,105.152932 110.492909,114 99.6100005,114 L45.420566,114 C34.5376575,114 25.7152496,105.152932 25.7152496,94.239521 L25.7152496,62.1287425 C25.7054664,56.8075603 27.8473323,51.7097131 31.6515233,48 L113.379044,48 Z" id="Path" fill="#E1EAF4"></path>
            <path d="M99.7477404,53 C105.206046,54.4123836 109.025287,59.3816754 109.029569,65.0767754 L109.029569,92.5239923 C109.029569,99.4143011 103.503484,105 96.6867118,105 L47.3152832,105 C40.4985114,105 34.9724261,99.4143011 34.9724261,92.5239923 L34.9724261,65.0767754 C34.9767088,59.3816754 38.7959497,54.4123836 44.2542546,53 L99.7477404,53 Z" id="Path" fill="#347F91"></path>
            <ellipse id="Oval" fill="#82ECFF" cx="52.9724261" cy="71.5" rx="8.74285714" ry="8.5"></ellipse>
            <ellipse id="Oval" fill="#82ECFF" cx="91.0295689" cy="71.5" rx="8.74285714" ry="8.5"></ellipse>
            <path d="M80.6258886,84.0004369 C81.1073684,83.989153 81.5689017,84.1969044 81.8857742,84.5675531 C82.2026466,84.9382017 82.3421518,85.4334905 82.2665929,85.9195838 C81.2930641,90.6296446 77.2257763,94 72.5152832,94 C67.8047902,94 63.7375023,90.6296446 62.7639736,85.9195838 C62.6884147,85.4334905 62.8279198,84.9382017 63.1447923,84.5675531 C63.4616648,84.1969044 63.9231981,83.989153 64.4046779,84.0004369 L80.6258886,84.0004369 Z" id="Path" fill="#82ECFF"></path>
            <path d="M35.1438546,124 L108.858141,124 C112.929268,124 116.229569,127.357864 116.229569,131.5 L116.229569,144 L27.7724261,144 L27.7724261,131.5 C27.7724261,127.357864 31.0727271,124 35.1438546,124 Z" id="Path" fill="#E1EAF4"></path>
            <path d="M106.972427,144 L106.972427,136.5 C106.972427,135.119288 105.854052,134 104.474467,134 L39.5275281,134 C38.1479433,134 37.0295689,135.119288 37.0295689,136.5 L37.0295689,144 L106.972427,144 Z" id="Path" fill="#347F91"></path>
            <polygon id="Path" fill="#E5BB33" points="131.658141 15 136.800998 15 136.800998 44 131.658141 44"></polygon>
            <path d="M27.7724225,24 L27.7724225,40.7887917 C27.7690857,44.6681908 30.0350286,48.1887952 33.5614579,49.7832273 C39.2079717,52.3386328 50.2970565,55 72.0009975,55 C93.7049385,55 104.794024,52.3386328 110.440538,49.7832273 C113.966967,48.1887952 116.23291,44.6681908 116.229572,40.7887917 L116.229572,24 L27.7724225,24 Z" id="Path" fill="#114559"></path>
            <ellipse id="Oval" fill="#C49027" cx="134.229569" cy="47.5" rx="7.71428571" ry="7.5"></ellipse>
            <path d="M142.600737,16.777542 L73.8658531,34.7618995 C72.6497201,35.0793668 71.3732962,35.0793668 70.1571632,34.7618995 L1.42227946,16.777542 C0.561428844,16.5475362 -0.0276016981,15.7492728 0,14.8528512 C0.031740888,13.9564296 0.672249852,13.1994401 1.54639894,13.0276759 L70.6685354,0.125636777 C71.5561244,-0.0418789257 72.4668919,-0.0418789257 73.3544809,0.125636777 L142.476618,13.0376755 C143.34089,13.2176567 143.97044,13.9701349 144.001999,14.8584257 C144.029401,15.7467165 143.451148,16.5398473 142.600737,16.777542 L142.600737,16.777542 Z" id="Path" fill="#205B75"></path>
        </g>
        <text id="KnowBot-Your-Learnin" font-family="CourierNewPS-BoldMT, Courier New" font-size="48" font-weight="bold" fill="#6544CC">
            <tspan x="215.183594" y="72">KnowBot</tspan>
            <tspan x="416.816406" y="72" font-size="24"> </tspan>
            <tspan x="150.373047" y="126" font-size="24">Your Learning Assistant</tspan>
        </text>
    </g>
</svg>